<svg id="Icons" viewBox="0 0 24 24" xmlns="http://www.w3.org/2000/svg" xmlns:xlink="http://www.w3.org/1999/xlink"><defs><style>.cls-1{fill:url(#linear-gradient);}.cls-2{fill:#fff;}.cls-3{fill:url(#linear-gradient-2);}</style><linearGradient gradientUnits="userSpaceOnUse" id="linear-gradient" x1="12" x2="12" y1="1" y2="17.101"><stop offset="0" stop-color="#a6f9ff"/><stop offset="1" stop-color="#3ed0f7"/></linearGradient><linearGradient id="linear-gradient-2" x1="12.05" x2="12.05" xlink:href="#linear-gradient" y1="12.159" y2="22.632"/></defs><rect class="cls-1" height="22" rx="4" width="22" x="1" y="1"/><circle class="cls-2" cx="7" cy="7" r="2"/><path class="cls-3" d="M23,18v1a4,4,0,0,1-4,4H5a4,4,0,0,1-3.9-3.1l7.193-7.193a1,1,0,0,1,1.414,0l1.807,1.807a1,1,0,0,0,1.46-.05L15.3,11.806a1,1,0,0,1,1.46-.05Z"/></svg>