<svg role="img" fill="currentColor" viewBox="0 0 18 18" id="SSampler18N-icon" width="18" height="18" aria-hidden="true" aria-label="" focusable="false"><path fill-rule="evenodd" d="M11.228,8.519,4.116,15.631a1.235,1.235,0,1,1-1.747-1.747L9.481,6.772Zm3.636-7.466a1.8,1.8,0,0,0-1.273.527L11.328,3.843l-.707-.707a.5.5,0,0,0-.707,0L8.234,4.817a.5.5,0,0,0,0,.707l.54.54L1.662,13.177a2.235,2.235,0,1,0,3.161,3.161l7.113-7.112.54.54a.5.5,0,0,0,.707,0l1.681-1.68a.5.5,0,0,0,0-.707l-.707-.707L16.42,4.409a1.8,1.8,0,0,0,0-2.546l-.283-.283a1.8,1.8,0,0,0-1.273-.527Z"></path></svg>